# xmcd
#
# Track frame offsets:
#	150
#	18055
#	35867
#	55777
#
# Disc length: 1170 seconds
#
# Revision: 2
# Processed by: cddbd v1.5.2PL0 Copyright (c) Steve Scherf et al.
# Submitted via: EasyCDDAExtractor 2010.6.0.0
#
DISCID=29049004
DTITLE=Tina Cousins - Pray
DYEAR=1998
DGENRE=Dance
TTITLE0=Pray (W.I.P. In The Church Radio Edit)
TTITLE1=Pray (Radio Edit)
TTITLE2=Pray (Original Version)
TTITLE3=Pray (W.I.P. In The Church Mix)
EXTD=
EXTT0=
EXTT1=
EXTT2=
EXTT3=
PLAYORDER=
